<svg width="100" height="100" viewBox="0 0 100 100" fill="none" xmlns="http://www.w3.org/2000/svg">
<g clip-path="url(#clip0_1_680)">
<path d="M25.2379 15.7309C25.9767 13.6498 27.7999 12.2172 29.9963 11.9894L55.5433 9.34726C57.1536 9.17948 58.6462 10.016 59.345 11.481C60.0412 12.9436 59.7507 14.6315 58.6062 15.776L51.6813 22.7009L76.3873 47.4118C79.7006 50.7252 79.7006 56.1196 76.3873 59.433C73.0739 62.7463 67.6795 62.7463 64.3661 59.433L26.5697 21.6365C25.0094 20.0763 24.496 17.8148 25.2349 15.7337L25.2379 15.7309ZM28.7967 16.9956C28.5487 17.6994 28.714 18.4357 29.2425 18.9641L67.0389 56.7605C68.8796 58.6012 71.8749 58.6012 73.7156 56.7605C75.5563 54.9198 75.5563 51.9245 73.7156 50.0838L47.6698 24.038C46.931 23.2992 46.9335 22.1046 47.6698 21.3683L55.9294 13.1087L30.3824 15.7507C29.6386 15.8284 29.0476 16.2942 28.7946 16.9979L28.7967 16.9956Z" fill="#C3D9A5"/>
<path d="M74.7646 84.0545C74.0258 86.1356 72.2026 87.5682 70.0062 87.796L44.4592 90.4381C43.2921 90.5583 42.1927 90.1551 41.4088 89.3713C41.1058 89.0683 40.8529 88.7101 40.6575 88.3044C39.9613 86.8418 40.2518 85.1539 41.3963 84.0094L48.3211 77.0845L23.6101 52.3735C20.2968 49.0602 20.2968 43.6657 23.6101 40.3524C26.9235 37.039 32.318 37.039 35.6313 40.3524L73.4328 78.1489C74.993 79.7091 75.5065 81.9706 74.7676 84.0517L74.7646 84.0545ZM26.2815 43.0245C24.4408 44.8652 24.4408 47.8605 26.2815 49.7012L52.3274 75.747C53.0661 76.4858 53.0636 77.6804 52.3274 78.4167L44.0677 86.6764L69.6147 84.0343C70.3585 83.9566 70.9496 83.4908 71.2025 82.7871C71.4504 82.0834 71.2851 81.3471 70.7567 80.8186L32.9603 43.0222C31.1196 41.1815 28.1243 41.1815 26.2836 43.0222L26.2815 43.0245Z" fill="#C3D9A5"/>
</g>
<defs>
<clipPath id="clip0_1_680">
<rect width="100" height="100" fill="white"/>
</clipPath>
</defs>
</svg>
