<svg width="50" height="50" viewBox="0 0 50 50" fill="none" xmlns="http://www.w3.org/2000/svg">
<rect width="50" height="50" rx="25" fill="#C3D9A5"/>
<path d="M15.476 12.2365C15.7611 11.4334 16.4647 10.8805 17.3124 10.7926L27.1715 9.77292C27.793 9.70817 28.369 10.031 28.6387 10.5964C28.9073 11.1608 28.7952 11.8122 28.3535 12.2539L25.6811 14.9264L35.2156 24.4628C36.4943 25.7415 36.4943 27.8234 35.2156 29.1021C33.9369 30.3808 31.8551 30.3808 30.5764 29.1021L15.99 14.5156C15.3878 13.9135 15.1897 13.0407 15.4748 12.2376L15.476 12.2365ZM16.8494 12.7246C16.7537 12.9962 16.8175 13.2803 17.0214 13.4843L31.6079 28.0707C32.3183 28.7811 33.4742 28.7811 34.1846 28.0707C34.8949 27.3603 34.8949 26.2044 34.1846 25.494L24.1329 15.4424C23.8478 15.1573 23.8488 14.6962 24.1329 14.4121L27.3205 11.2245L17.4614 12.2442C17.1743 12.2741 16.9462 12.4539 16.8486 12.7255L16.8494 12.7246Z" fill="#4C4C4C"/>
<path d="M34.5894 38.6038C34.3043 39.407 33.6006 39.9598 32.753 40.0478L22.8939 41.0674C22.4435 41.1138 22.0192 40.9582 21.7167 40.6557C21.5997 40.5388 21.5021 40.4006 21.4267 40.244C21.158 39.6795 21.2702 39.0281 21.7119 38.5864L24.3843 35.914L14.8478 26.3775C13.5691 25.0988 13.5691 23.017 14.8478 21.7383C16.1265 20.4596 18.2083 20.4596 19.487 21.7383L34.0754 36.3247C34.6775 36.9269 34.8757 37.7996 34.5905 38.6028L34.5894 38.6038ZM15.8787 22.7695C15.1684 23.4799 15.1684 24.6358 15.8787 25.3462L25.9304 35.3978C26.2155 35.6829 26.2145 36.144 25.9304 36.4281L22.7428 39.6157L32.6019 38.596C32.889 38.5661 33.1171 38.3863 33.2147 38.1147C33.3104 37.8431 33.2466 37.559 33.0427 37.3551L18.4562 22.7686C17.7458 22.0582 16.5899 22.0582 15.8795 22.7686L15.8787 22.7695Z" fill="#4C4C4C"/>
</svg>
