<svg width="60" height="63" viewBox="0 0 60 63" fill="none" xmlns="http://www.w3.org/2000/svg">
<path d="M24.7888 0.0461819C25.89 -0.117455 27.0114 0.157487 27.9119 0.811904C28.8125 1.46632 29.4203 2.44796 29.6048 3.54581C29.7893 4.64365 29.5356 5.77004 28.8984 6.68284C28.2611 7.59564 27.2912 8.22197 26.197 8.42718C21.2471 9.26663 16.7542 11.8316 13.5149 15.6673C10.2755 19.5031 8.49894 24.3619 8.5 29.3825C8.5 35.0184 10.7388 40.4234 14.724 44.4085C18.7091 48.3937 24.1141 50.6325 29.75 50.6325V59.1325C13.3195 59.1325 0 45.8159 0 29.3825C0 14.805 10.557 2.43752 24.7888 0.0461819Z" fill="url(#paint0_linear_145_539)"/>
<path d="M43.6107 7.56017C43.9834 7.14437 44.4344 6.8061 44.9379 6.56468C45.4414 6.32325 45.9875 6.18342 46.5451 6.15316C47.1026 6.1229 47.6607 6.20281 48.1874 6.38832C48.714 6.57384 49.199 6.86132 49.6145 7.23434C52.7282 10.0224 55.2182 13.4364 56.9217 17.2531C58.6252 21.0697 59.5038 25.203 59.5 29.3825C59.5 45.8158 46.1805 59.1325 29.75 59.1325V50.6325C34.0515 50.6326 38.2516 49.3272 41.7953 46.8891C45.339 44.4509 48.0594 40.9947 49.5967 36.9774C51.1341 32.96 51.4161 28.5707 50.4054 24.3897C49.3948 20.2086 47.1391 16.4328 43.9365 13.5612C43.0976 12.8085 42.592 11.7535 42.5309 10.6281C42.4698 9.50277 42.8582 8.39921 43.6107 7.56017Z" fill="url(#paint1_linear_145_539)"/>
<defs>
<linearGradient id="paint0_linear_145_539" x1="1487.5" y1="311.687" x2="1487.5" y2="5427.95" gradientUnits="userSpaceOnUse">
<stop stop-color="#FF4B4B"/>
<stop offset="1" stop-opacity="0.55"/>
</linearGradient>
<linearGradient id="paint1_linear_145_539" x1="1517.25" y1="813.647" x2="1517.25" y2="4623.84" gradientUnits="userSpaceOnUse">
<stop offset="0.3" stop-color="#BEBEBE" stop-opacity="0.34"/>
</linearGradient>
</defs>
</svg>
